<?xml version="1.0" standalone="no"?>
<!DOCTYPE svg PUBLIC "-//W3C//DTD SVG 20010904//EN"
 "http://www.w3.org/TR/2001/REC-SVG-20010904/DTD/svg10.dtd">
<svg version="1.0" xmlns="http://www.w3.org/2000/svg"
 width="512.000000pt" height="512.000000pt" viewBox="0 0 512.000000 512.000000"
 preserveAspectRatio="xMidYMid meet">
<metadata>
Created by potrace 1.11, written by Peter Selinger 2001-2013
</metadata>
<g transform="translate(0.000000,512.000000) scale(0.100000,-0.100000)"
fill="#000000" stroke="none">
<path d="M2925 5106 c-230 -57 -461 -265 -678 -611 -108 -174 -244 -460 -318
-674 -17 -47 -34 -95 -39 -106 -18 -42 -95 -323 -105 -384 -3 -19 -7 -37 -9
-40 -2 -3 -7 -26 -10 -51 -3 -25 -8 -54 -10 -66 -53 -268 -9 -544 116 -728
l27 -39 -32 -41 c-18 -22 -34 -43 -38 -46 -32 -29 -224 -293 -259 -357 -13
-24 -26 -43 -29 -43 -3 0 -48 43 -99 95 -52 52 -97 95 -100 95 -4 0 -13 4 -21
9 -12 8 -7 18 26 54 156 169 163 435 16 619 -97 121 -232 180 -392 174 -133
-6 -222 -45 -317 -140 -57 -57 -101 -122 -91 -133 3 -2 27 3 54 12 63 22 184
22 259 0 206 -59 346 -244 345 -454 -1 -42 -6 -94 -12 -116 -20 -71 -22 -121
-6 -151 20 -38 394 -409 430 -428 59 -29 137 23 137 92 0 28 -11 45 -60 96
l-60 63 53 24 c53 24 223 118 287 157 19 12 37 22 40 22 3 0 5 -73 5 -163 1
-170 9 -294 26 -393 5 -32 11 -68 13 -79 2 -11 8 -38 14 -60 6 -22 13 -67 17
-100 3 -33 8 -71 10 -85 7 -47 35 -205 40 -230 3 -14 10 -47 15 -75 5 -27 25
-117 46 -200 23 -96 33 -150 26 -153 -58 -19 -171 -154 -192 -230 -48 -176 51
-238 382 -240 257 -2 353 24 396 108 14 28 20 55 17 70 -3 14 -7 34 -9 46 -13
67 -90 172 -174 234 l-33 25 30 115 c17 63 38 151 47 195 9 44 17 85 19 90 10
48 17 84 19 108 2 16 7 32 12 37 27 25 327 38 458 20 43 -6 87 -12 97 -13 22
-1 26 -11 44 -122 18 -113 87 -404 101 -426 2 -5 -8 -15 -24 -23 -47 -24 -127
-113 -158 -174 -23 -45 -29 -71 -29 -120 0 -60 2 -65 37 -97 60 -55 117 -67
333 -71 258 -4 350 15 402 83 67 87 2 259 -135 358 -34 26 -51 44 -47 54 36
119 103 424 120 551 3 25 8 52 10 60 2 8 6 38 10 65 10 83 16 118 25 155 5 19
12 55 15 80 4 24 8 47 10 50 3 5 11 85 20 187 3 26 5 119 6 206 1 86 4 157 6
157 3 0 28 -15 56 -34 141 -91 348 -186 407 -186 28 0 47 20 46 45 -2 22 -41
112 -64 150 -44 69 -152 216 -235 319 l-80 98 22 37 c45 73 99 198 117 266 22
89 27 297 9 425 -21 153 -45 255 -121 520 -68 238 -251 645 -384 855 -255 402
-508 602 -770 610 -47 2 -107 -3 -135 -9z"/>
</g>
</svg>
